<svg version="1.1" xmlns="http://www.w3.org/2000/svg" xmlns:xlink="http://www.w3.org/1999/xlink" width="303.94243" height="131.66302" viewBox="0,0,303.94243,131.66302"><g transform="translate(-54.7,-124.73187)"><g data-paper-data="{&quot;isPaintingLayer&quot;:true}" fill="none" fill-rule="nonzero" stroke="none" stroke-width="none" stroke-linecap="butt" stroke-linejoin="miter" stroke-miterlimit="10" stroke-dasharray="" stroke-dashoffset="0" font-family="none" font-weight="none" font-size="none" text-anchor="none" style="mix-blend-mode: normal"><text transform="translate(155.18222,195.61553) scale(1.26496,1.26496)" font-size="40" xml:space="preserve" data-paper-data="{&quot;origPos&quot;:null}" fill="#406aa5" fill-rule="nonzero" stroke="#000000" stroke-width="0" stroke-linecap="butt" stroke-linejoin="miter" stroke-miterlimit="10" stroke-dasharray="" stroke-dashoffset="0" font-family="Serif" font-weight="normal" text-anchor="start" style="mix-blend-mode: normal"><tspan x="0" dy="0">Flat Earth</tspan></text><g stroke-width="0"><path d="M69.75741,241.37826l31.92529,-106.30657c0,0 9.70756,-11.37301 13.40164,-10.26363c4.26241,1.28006 6.9859,16.38628 6.9859,16.38628l-31.92529,106.30657c0,0 -9.27023,9.91676 -12.96431,8.80738c-4.26241,-1.28006 -7.42324,-14.93003 -7.42324,-14.93003z" data-paper-data="{&quot;origPos&quot;:null,&quot;origRot&quot;:0}" fill="#406aa5" stroke="none"/><path d="M54.7,190.00708c0,-23.51306 19.0611,-42.57415 42.57415,-42.57415c23.51306,0 42.57415,19.0611 42.57415,42.57415c0,23.51306 -19.0611,42.57415 -42.57415,42.57415c-23.51306,0 -42.57415,-19.0611 -42.57415,-42.57415z" data-paper-data="{&quot;origPos&quot;:null}" fill="#406aa5" stroke="#000000"/><path d="M57.12416,190.00708c0,-22.17423 17.97576,-40.15001 40.15001,-40.15001c22.17423,0 40.15001,17.97576 40.15001,40.15001c0,22.17423 -17.97576,40.15001 -40.15001,40.15001c-22.17423,0 -40.15001,-17.97576 -40.15001,-40.15001z" data-paper-data="{&quot;origPos&quot;:null}" fill="#ffffff" stroke="#000000"/><path d="M59.24528,190.15858c0,-20.91909 16.95827,-37.87736 37.87736,-37.87736c20.91909,0 37.87736,16.95827 37.87736,37.87736c0,20.91909 -16.95827,37.87736 -37.87736,37.87736c-20.91909,0 -37.87736,-16.95827 -37.87736,-37.87736z" data-paper-data="{&quot;origPos&quot;:null}" fill="#406aa5" stroke="#000000"/><path d="M125.15189,207.2034c0,7.27984 -12.34563,13.18132 -27.57471,13.18132c-15.22909,0 -27.57471,-5.90149 -27.57471,-13.18132c0,-7.27984 12.34563,-13.18132 27.57471,-13.18132c15.22909,0 27.57471,5.90149 27.57471,13.18132z" data-paper-data="{&quot;origPos&quot;:null}" fill="#ffffff" stroke="none"/><path d="M97.78513,194.93112c14.44484,0 26.15469,4.81616 26.15469,10.75716c0,5.94103 -11.70985,10.75716 -26.15469,10.75716c-14.44484,0 -26.15469,-4.81616 -26.15469,-10.75716c0,-5.94103 11.70985,-10.75716 26.15469,-10.75716z" data-paper-data="{&quot;origPos&quot;:null}" fill="#406aa5" stroke="none"/><path d="M92.12284,203.41565c0,0.93823 -0.79743,2.47135 -0.73097,3.40722c0.09792,1.37898 1.62713,1.49554 0.64441,2.46789c-1.12508,1.11321 -3.0275,-2.23889 -4.61024,-2.23889c-2.59396,0 -6.4139,-1.72899 -6.4139,-3.73723c0,-2.00822 -3.85654,-3.3332 -1.86862,-4.24226c0,0 3.43893,-0.95581 7.08249,-1.95239c0,0 7.10314,-2.35654 8.16565,-0.4846c0,0 -1.29164,1.6009 -1.23504,2.82592c0.06588,1.42583 1.79415,2.61726 1.22272,3.92522c-0.41812,0.95703 -2.2565,-1.97912 -2.2565,0.02912z" data-paper-data="{&quot;origPos&quot;:null}" fill="#ffffff" stroke="none"/><path d="M105.55667,206.39534c0,0.93358 -0.89998,0.84323 -1.66249,1.38187c-0.90468,0.63903 -1.06811,1.39582 -2.17574,1.39582c-2.1198,0 -3.83824,-1.24361 -3.83824,-2.77767c0,-0.93358 1.40502,-0.23722 2.16753,-0.77583c0.90468,-0.63903 0.56309,-2.00184 1.6707,-2.00184c0,0 0.81518,-1.68945 1.68162,-1.15456c0.87047,0.53738 2.15664,2.39818 2.15664,3.93225z" data-paper-data="{&quot;origPos&quot;:null}" fill="#ffffff" stroke="none"/><path d="M120.00057,202.50659c0,1.10197 0.90976,3.96184 -0.16552,4.20297c-2.54735,0.57126 -5.5373,-1.28087 -7.51987,-0.31881c-2.02424,0.98227 -1.93285,-3.68215 -4.18286,-3.68215c-1.07336,0 -3.49297,-3.43638 -4.55034,-3.62097c-2.64579,-0.46189 -2.60514,2.82378 -4.59329,1.01802c-1.16068,-1.0542 1.82069,-1.58646 1.82069,-3.15442c0,-1.61773 4.55061,-0.79092 7.62598,-0.101c3.15182,0.70705 11.56523,4.03861 11.56523,5.65635z" data-paper-data="{&quot;origPos&quot;:null}" fill="#ffffff" stroke="none"/><path d="M105.78672,210.79868c-1.90812,2.56255 3.55257,1.21862 -3.35326,3.24974c-2.624,0.77176 -4.37449,1.07466 -7.08824,0.7332c-7.06912,-0.88946 -4.80494,0.34851 -11.22992,-2.89105c-1.47825,-0.74533 -0.41734,-2.42812 1.23788,-2.39701c2.33157,0.04381 -0.22563,1.05737 2.05659,1.53646c2.13982,0.44921 4.76842,1.23245 6.66785,0.1495c1.31132,-0.74766 0.78978,-2.33772 2.29812,-2.27879c1.6633,0.06499 0.34574,2.23027 1.92091,2.76849c0,0 8.08976,-1.67593 7.49008,-0.87055z" data-paper-data="{&quot;origPos&quot;:null,&quot;origRot&quot;:0}" fill="#ffffff" stroke="none"/><path d="M106.66772,175.99244c0,-4.2675 3.45949,-7.72699 7.72699,-7.72699c4.2675,0 7.72699,3.45949 7.72699,7.72699c0,4.2675 -3.45949,7.72699 -7.72699,7.72699c-4.2675,0 -7.72699,-3.45949 -7.72699,-7.72699z" data-paper-data="{&quot;origPos&quot;:null}" fill="#ffffff" stroke="none"/><path d="M71.29027,178.5176c0,-0.48058 0.65043,-0.40233 0.96263,-0.7677c0.38178,-0.44677 0.19205,-0.97467 0.77974,-0.97467c0.57083,0 0.43047,0.69932 0.81189,1.124c0.33237,0.37009 0.93047,0.12093 0.93047,0.61836c0,0.553 -0.44633,0.40083 -0.848,0.78091c-0.37426,0.35416 -0.3791,0.96145 -0.89436,0.96145c0,0 -0.40199,-0.48706 -0.77663,-0.84354c-0.39926,-0.37992 -0.96571,0.06346 -0.96571,-0.89881z" data-paper-data="{&quot;origPos&quot;:null}" fill="#ffffff" stroke="none"/><path d="M77.75468,184.42648c0,-0.88453 1.19715,-0.74052 1.77179,-1.413c0.70271,-0.82233 0.35348,-1.79396 1.43517,-1.79396c1.05066,0 0.7923,1.28714 1.49433,2.06881c0.61176,0.68118 1.71261,0.22258 1.71261,1.13814c0,1.01782 -0.82152,0.73773 -1.5608,1.43734c-0.68884,0.65185 -0.69778,1.76961 -1.64615,1.76961c0,0 -0.73991,-0.89649 -1.42946,-1.55262c-0.73486,-0.69924 -1.77749,0.1168 -1.77749,-1.65435z" data-paper-data="{&quot;origPos&quot;:null}" fill="#ffffff" stroke="none"/><path d="M84.11808,172.35622c0,-1.17708 1.59307,-0.98542 2.35773,-1.88028c0.93508,-1.09428 0.47039,-2.38724 1.90979,-2.38724c1.39812,0 1.05434,1.7128 1.98853,2.75299c0.81408,0.90646 2.27899,0.29618 2.27899,1.51454c0,1.35444 -1.09321,0.98171 -2.07698,1.91268c-0.91665,0.86743 -0.92851,2.35484 -2.19052,2.35484c0,0 -0.98461,-1.19296 -1.9022,-2.06607c-0.9779,-0.9305 -2.36532,0.15543 -2.36532,-2.20145z" data-paper-data="{&quot;origPos&quot;:null}" fill="#ffffff" stroke="none"/></g><text transform="translate(157,222) scale(0.5,0.5)" font-size="40" xml:space="preserve" data-paper-data="{&quot;origPos&quot;:null}" fill="#406aa5" fill-rule="nonzero" stroke="none" stroke-width="1" stroke-linecap="butt" stroke-linejoin="miter" stroke-miterlimit="10" stroke-dasharray="" stroke-dashoffset="0" font-family="Serif" font-weight="normal" text-anchor="start" style="mix-blend-mode: normal"><tspan x="0" dy="0">The debate of origins</tspan></text></g></g></svg>